<svg id="Capa_1" data-name="Capa 1" xmlns="http://www.w3.org/2000/svg" viewBox="0 0 1908 700"><defs><style>.cls-1{fill:#323031;}.cls-2{fill:#ff850f;}</style></defs><title>00-heippi-color</title><polygon class="cls-1" points="719.61 224.89 719.61 333.21 602.17 361.35 602.17 224.89 546.94 224.89 546.94 496.63 602.17 496.63 602.17 419.59 719.61 391.48 719.61 496.63 774.85 496.63 774.85 224.89 719.61 224.89"/><path class="cls-1" d="M1043.77,392.39c-8-44.21-55.34-78.21-112.79-78.21-63,0-114,40.84-114,91.23S868,496.63,931,496.63c28.73,0,54.86-8.53,74.9-22.53l-30.11-29.64c-11.85,8.74-27.46,14.13-44.8,14.13-31.17,0-57.14-17.24-64.31-40.43h177.1A71.71,71.71,0,0,0,1045,405.4a77,77,0,0,0-1.25-13m-177,0c7.3-23,33.19-40.14,64.21-40.14s56.93,17.12,64.24,40.14Z"/><rect class="cls-1" x="1071.49" y="301.91" width="55.23" height="194.72"/><path class="cls-1" d="M1130,258.4c0,13-13.72,23.62-30.62,23.62s-30.65-10.58-30.65-23.62,13.74-23.6,30.65-23.6S1130,245.38,1130,258.4"/><rect class="cls-1" x="1695.5" y="301.91" width="55.23" height="194.72"/><path class="cls-1" d="M1754,258.4c0,13-13.72,23.62-30.62,23.62s-30.65-10.58-30.65-23.62,13.74-23.6,30.65-23.6S1754,245.38,1754,258.4"/><path class="cls-1" d="M1285.29,288.12c-63,0-114,40.87-114,91.23V522.69h51.45V455.58a134.31,134.31,0,0,0,62.55,15c63,0,114-40.84,114-91.25s-51-91.23-114-91.23m0,144.41c-29.07,0-53.55-15.07-62.55-35.86a43.57,43.57,0,0,1-3.89-17.32c0-29.33,29.77-53.19,66.43-53.19s66.49,23.86,66.49,53.19-29.77,53.18-66.49,53.18"/><path class="cls-1" d="M1542.38,288.12c-63,0-114,40.87-114,91.23V522.69h51.45V455.58a134.3,134.3,0,0,0,62.55,15c63,0,114-40.84,114-91.25s-51-91.23-114-91.23m0,144.41c-29.07,0-53.55-15.07-62.55-35.86a43.53,43.53,0,0,1-3.89-17.32c0-29.33,29.77-53.19,66.44-53.19s66.49,23.86,66.49,53.19-29.77,53.18-66.49,53.18"/><polygon class="cls-2" points="307.74 314.83 226.8 334.66 226.8 288.92 171.57 276.45 171.57 582.98 226.8 518.23 226.8 392.93 307.74 373.09 307.74 314.83"/><path class="cls-2" d="M238.47,220.23c0,18-18.9,32.57-42.22,32.57S154,238.22,154,220.23s18.93-32.54,42.25-32.54,42.22,14.57,42.22,32.54"/><polygon class="cls-2" points="452.37 582.98 270.92 507.62 270.92 431.9 297.48 424.18 297.48 490.66 425.81 541.41 425.81 157.68 297.48 205.76 297.48 273.98 270.92 280.62 270.92 188.41 452.37 117.02 452.37 582.98"/><path class="cls-2" d="M319.88,421.14V394.59a49,49,0,0,0,0-97.92V270.12a75.51,75.51,0,0,1,0,151"/></svg>